<svg xmlns="http://www.w3.org/2000/svg" width="89.088" height="36.562" viewBox="0 0 89.088 36.562">
    <g data-name="Group 377" transform="translate(838.327 -4202)">
        <rect data-name="Rectangle 756" width="19.415" height="36.562" transform="translate(-838.327 4202)" fill="#db1c49" />
        <g data-name="&lt;Group&gt;" transform="translate(-836.003 4212.171)">
            <g data-name="&lt;Group&gt;">
                <path data-name="Path 365" d="M515.292,79.346a.337.337,0,0,0-.342-.356h-3.2a5.394,5.394,0,0,1,2.141-4.6c-3.37,1.387-3.093,5.313-3.093,5.313h4.158A.348.348,0,0,0,515.292,79.346Z" transform="translate(-508.503 -73.743)" fill="#fff" />
                <path data-name="Path 366" d="M499.7,69.94c-5.035,2.312-4.639,7.814-4.639,7.814h6.079a.582.582,0,1,0,0-1.163h-4.785a8.091,8.091,0,0,1,3.345-6.648" transform="translate(-495.05 -69.94)" fill="#fff" />
            </g>
            <path data-name="Path 367" d="M549.907,79.346a.337.337,0,0,1,.342-.356h3.2a5.394,5.394,0,0,0-2.141-4.6c3.37,1.387,3.093,5.313,3.093,5.313h-4.152a.347.347,0,0,1-.342-.356Z" transform="translate(-541.928 -73.743)" fill="#fff" />
            <path data-name="Path 368" d="M552.6,69.94c5.035,2.312,4.639,7.814,4.639,7.814h-6.079a.582.582,0,1,1,0-1.163h4.785a8.091,8.091,0,0,0-3.345-6.648" transform="translate(-542.479 -69.94)" fill="#fff" />
            <path data-name="Path 369" d="M549.907,140.828a.337.337,0,0,0,.342.356h3.2a5.394,5.394,0,0,1-2.135,4.6c3.37-1.387,3.093-5.313,3.093-5.313h-4.158a.348.348,0,0,0-.342.358Z" transform="translate(-541.928 -130.213)" fill="#fff" />
            <path data-name="Path 370" d="M552.6,135.554c5.035-2.314,4.639-7.814,4.639-7.814h-6.079a.582.582,0,1,0,0,1.163h4.785a8.091,8.091,0,0,1-3.345,6.648" transform="translate(-542.479 -119.334)" fill="#fff" />
            <path data-name="Path 371" d="M515.249,140.828a.337.337,0,0,1-.342.356h-3.2a5.394,5.394,0,0,0,2.134,4.6c-3.37-1.387-3.093-5.313-3.093-5.313h4.158a.348.348,0,0,1,.343.358Z" transform="translate(-508.46 -130.213)" fill="#fff" />
            <path data-name="Path 372" d="M499.7,135.554c-5.035-2.314-4.639-7.814-4.639-7.814h6.079a.582.582,0,1,1,0,1.163h-4.785a8.091,8.091,0,0,0,3.345,6.648" transform="translate(-495.05 -119.334)" fill="#fff" />
        </g>
    </g>
    <g transform="translate(24 7)">
        <text x="0" y="0" fill="#fff" font-size="15" font-weight="700" dominant-baseline="hanging" font-family="Arial, Helvetica, sans-serif">Rismun</text>
        <text x="0.5" y="16" fill="#fff" font-size="5.2" font-weight="400" dominant-baseline="hanging" font-family="Arial, Helvetica, sans-serif">Information Technology</text>
    </g>
</svg>
