<svg xmlns="http://www.w3.org/2000/svg" width="89.088" height="36.562" viewBox="0 0 89.088 36.562">
  <g id="Group_377" data-name="Group 377" transform="translate(908 -4202)">
    <rect id="Rectangle_756" data-name="Rectangle 756" width="19.415" height="36.562" transform="translate(-838.327 4202)" fill="#db1c49"/>
    <g id="_Group_" data-name="&lt;Group&gt;" transform="translate(-836.003 4212.171)">
      <g id="_Group_2" data-name="&lt;Group&gt;">
        <path id="Path_365" data-name="Path 365" d="M515.292,79.346a.337.337,0,0,0-.342-.356h-3.2a5.394,5.394,0,0,1,2.141-4.6c-3.37,1.387-3.093,5.313-3.093,5.313h4.158A.348.348,0,0,0,515.292,79.346Z" transform="translate(-508.503 -73.743)" fill="#fff"/>
        <path id="Path_366" data-name="Path 366" d="M499.7,69.94c-5.035,2.312-4.639,7.814-4.639,7.814h6.079a.582.582,0,1,0,0-1.163h-4.785a8.091,8.091,0,0,1,3.345-6.648" transform="translate(-495.05 -69.94)" fill="#fff"/>
      </g>
      <path id="Path_367" data-name="Path 367" d="M549.907,79.346a.337.337,0,0,1,.342-.356h3.2a5.394,5.394,0,0,0-2.141-4.6c3.37,1.387,3.093,5.313,3.093,5.313h-4.152a.347.347,0,0,1-.342-.356Z" transform="translate(-541.928 -73.743)" fill="#fff"/>
      <path id="Path_368" data-name="Path 368" d="M552.6,69.94c5.035,2.312,4.639,7.814,4.639,7.814h-6.079a.582.582,0,1,1,0-1.163h4.785a8.091,8.091,0,0,0-3.345-6.648" transform="translate(-542.479 -69.94)" fill="#fff"/>
      <path id="Path_369" data-name="Path 369" d="M549.907,140.828a.337.337,0,0,0,.342.356h3.2a5.394,5.394,0,0,1-2.135,4.6c3.37-1.387,3.093-5.313,3.093-5.313h-4.158a.348.348,0,0,0-.342.358Z" transform="translate(-541.928 -130.213)" fill="#fff"/>
      <path id="Path_370" data-name="Path 370" d="M552.6,135.554c5.035-2.314,4.639-7.814,4.639-7.814h-6.079a.582.582,0,1,0,0,1.163h4.785a8.091,8.091,0,0,1-3.345,6.648" transform="translate(-542.479 -119.334)" fill="#fff"/>
      <path id="Path_371" data-name="Path 371" d="M515.249,140.828a.337.337,0,0,1-.342.356h-3.2a5.394,5.394,0,0,0,2.134,4.6c-3.37-1.387-3.093-5.313-3.093-5.313h4.158a.348.348,0,0,1,.343.358Z" transform="translate(-508.46 -130.213)" fill="#fff"/>
      <path id="Path_372" data-name="Path 372" d="M499.7,135.554c-5.035-2.314-4.639-7.814-4.639-7.814h6.079a.582.582,0,1,1,0,1.163h-4.785a8.091,8.091,0,0,0,3.345,6.648" transform="translate(-495.05 -119.334)" fill="#fff"/>
    </g>
    <g id="Group_376" data-name="Group 376">
      <path id="Path_373" data-name="Path 373" d="M13.683,108.32a5.859,5.859,0,0,1-1.412,4.06,5.014,5.014,0,0,1-3.919,1.636H5.085a4.715,4.715,0,0,1-3.655-1.659A5.5,5.5,0,0,1,0,108.555V104.13H2.066V108.8a2.859,2.859,0,0,0,1.049,2.251,3.518,3.518,0,0,0,2.369.861H8.218a3.441,3.441,0,0,0,2.363-.873,2.856,2.856,0,0,0,.983-2.24v-6.792h2.119Zm-5.99-6.789a1.386,1.386,0,0,1-.436,1.018,1.428,1.428,0,0,1-1.041.423q-1.566,0-1.566-1.441,0-1.271,1.507-1.271Q7.693,100.257,7.693,101.531Z" transform="translate(-907.994 4116.321)" fill="#fff"/>
      <path id="Path_374" data-name="Path 374" d="M116.828,80.132a5.469,5.469,0,0,1-3.781-1.035,2.876,2.876,0,0,1-.727-2.2V66.88h2.119v9.087q0,1.472.494,1.8a5.139,5.139,0,0,0,1.891.247Z" transform="translate(-1003.984 4144.847)" fill="#fff"/>
      <path id="Path_375" data-name="Path 375" d="M151.825,108.289h0a4.444,4.444,0,0,1-1.518-.188,2.475,2.475,0,0,1-1.094-1.035h0a3.147,3.147,0,0,1-2.92,1.514,3.2,3.2,0,0,1-1.547-.436,3.384,3.384,0,0,1-1.219-1.07h0a2.3,2.3,0,0,1-2.407,1.223h0L141,106.167h0c1.177,0,1.179-.1,1.39-.334a3.963,3.963,0,0,0,.164-1.627,4.868,4.868,0,0,1,.906-3.089,3.436,3.436,0,0,1,2.884-1.286,3.162,3.162,0,0,1,2.706,1.369,5.154,5.154,0,0,1,.918,3.006q.012.672.023.861a1.034,1.034,0,0,0,.564.967,4.758,4.758,0,0,0,1.259.153h0Zm-3.767-4.155q0-2.237-1.789-2.237-1.86,0-1.86,2.378,0,2.2,1.86,2.2,1.789,0,1.789-2.337Z" transform="translate(-1028.493 4116.689)" fill="#fff"/>
      <path id="Path_376" data-name="Path 376" d="M233.689,118.946a7.1,7.1,0,0,1-1.648-.153,1.974,1.974,0,0,1-1.248-.977,2.916,2.916,0,0,1-2.448,1.366,4.214,4.214,0,0,1-2.909-1.4,3.944,3.944,0,0,1-3.083,1.4,3.412,3.412,0,0,1-2.836-1.483,3.447,3.447,0,0,1-2.366,1.142,8.869,8.869,0,0,1-1.882.106v-2.1l.906-.01a3.251,3.251,0,0,0,1.624-.291,1.707,1.707,0,0,0,.6-1.542v-2.7h2.065v3.143a1.547,1.547,0,0,0,.544,1.219,1.891,1.891,0,0,0,1.287.477q1.454,0,1.454-1.318V112.3h2.071v3.12a1.588,1.588,0,0,0,.553,1.236,1.8,1.8,0,0,0,1.271.483q1.472,0,1.472-1.318V112.3h2.1v3.249a1.155,1.155,0,0,0,.765,1.1,7.911,7.911,0,0,0,1.706.188Z" transform="translate(-1091.962 4106.032)" fill="#fff"/>
      <path id="Path_377" data-name="Path 377" d="M346.122,115.518a3.655,3.655,0,0,1-.812,2.378,2.73,2.73,0,0,1-2.213,1.067h-3.781v-2.119l3.122.012a1.66,1.66,0,0,0,1.225-.359,1.834,1.834,0,0,0,.342-1.268V112.32h2.119Zm-4.426,7.509a1.149,1.149,0,0,1-.394.894,1.371,1.371,0,0,1-.947.353,1.639,1.639,0,0,1-1.018-.318,1.117,1.117,0,0,1-.46-.929q0-1.177,1.342-1.177,1.476,0,1.476,1.178Zm4.061,0a1.149,1.149,0,0,1-.394.894,1.372,1.372,0,0,1-.947.353,1.639,1.639,0,0,1-1.018-.318,1.117,1.117,0,0,1-.46-.929q0-1.177,1.342-1.177,1.476,0,1.476,1.178Z" transform="translate(-1197.593 4106.015)" fill="#fff"/>
      <path id="Path_378" data-name="Path 378" d="M406.783,118.586a5.867,5.867,0,0,1-1.454,4,4.9,4.9,0,0,1-3.837,1.718h-2.83l-.342-2.181h2.389a4.6,4.6,0,0,0,2.618-.727,2.648,2.648,0,0,0,1.271-2.318V112.3h2.182Z" transform="translate(-1248.391 4106.032)" fill="#fff"/>
      <path id="Path_379" data-name="Path 379" d="M239.932,69.224a.8.8,0,0,1-.189.528.617.617,0,0,1-.493.241h-2.494a.614.614,0,0,1-.5-.236.811.811,0,0,1-.182-.532V68.51h.473v.65a.416.416,0,0,0,.074.282.361.361,0,0,0,.272.081h2.2a.371.371,0,0,0,.275-.081.406.406,0,0,0,.077-.282v-.65h.478Zm-2.158-1.5a.27.27,0,0,1-.087.2.291.291,0,0,1-.209.083q-.33,0-.33-.291,0-.257.3-.257Q237.774,67.466,237.774,67.722Zm.906,0a.269.269,0,0,1-.087.2.291.291,0,0,1-.211.083q-.329,0-.329-.291,0-.257.3-.257.332.006.332.262Z" transform="translate(-1109.744 4144.351)" fill="#fff"/>
      <path id="Path_380" data-name="Path 380" d="M266.995,67.507a1.212,1.212,0,0,1-.842-.231.64.64,0,0,1-.167-.49V64.55h.473v2.027q0,.329.111.4a1.155,1.155,0,0,0,.423.055Z" transform="translate(-1135.3 4146.838)" fill="#fff"/>
      <path id="Path_381" data-name="Path 381" d="M273.886,73.787H271.51v-.47h.672a1.553,1.553,0,0,1-.145-.608.782.782,0,0,1,.156-.478.748.748,0,0,1,.407-.282,1.441,1.441,0,0,1,.394-.049,1.03,1.03,0,0,1,.727.349l-.234.368a1.13,1.13,0,0,0-.633-.284q-.372,0-.372.455a.664.664,0,0,0,.092.35.33.33,0,0,0,.291.179h.939Z" transform="translate(-1140.023 4140.557)" fill="#fff"/>
      <path id="Path_382" data-name="Path 382" d="M292.573,67.037a.82.82,0,0,0-1.284,0h-.436q-.922,0-.922-.727V64h.462v2.109a.607.607,0,0,0,.089.4.706.706,0,0,0,.371.052h.4a.3.3,0,0,0,.276-.113.833.833,0,0,0,.042-.345V64h.473v2.154q0,.41.522.41Z" transform="translate(-1155.764 4147.308)" fill="#fff"/>
      <path id="Path_383" data-name="Path 383" d="M308.685,67.037H306.94v-.47h.4V64h.477v1.694q.454-.538.809-.538a.727.727,0,0,1,.6.323,1.105,1.105,0,0,1,.215.675.982.982,0,0,1-.183.62A.684.684,0,0,1,308.685,67.037Zm-.02-1.409q-.231,0-.532.359a2.262,2.262,0,0,0-.365.582h.919q.273,0,.273-.428,0-.513-.3-.513Z" transform="translate(-1170.3 4147.308)" fill="#fff"/>
      <path id="Path_384" data-name="Path 384" d="M329.455,67.037H329V64h.462Z" transform="translate(-1189.152 4147.308)" fill="#fff"/>
      <path id="Path_385" data-name="Path 385" d="M351.2,66.311a.936.936,0,0,1-.154.551.557.557,0,0,1-.489.255.935.935,0,0,1-.665-.32.717.717,0,0,1-.557.32.992.992,0,0,1-.532-.189,1.481,1.481,0,0,1-.3.929,1.059,1.059,0,0,1-.873.407h-.72a1.1,1.1,0,0,1-.836-.362,1.216,1.216,0,0,1-.329-.861v-.982h.462v1a.7.7,0,0,0,.215.537.762.762,0,0,0,.544.195h.614a.739.739,0,0,0,.534-.2.7.7,0,0,0,.211-.526V65.587h.473v.7a.345.345,0,0,0,.122.271.423.423,0,0,0,.291.108q.327,0,.327-.291V65.59h.462v.7a.358.358,0,0,0,.116.276.409.409,0,0,0,.291.108q.33,0,.33-.291v-.785h.467Zm-1.61-1.341a.268.268,0,0,1-.089.2.291.291,0,0,1-.209.084.349.349,0,0,1-.225-.076.256.256,0,0,1-.1-.209q0-.26.3-.26.327,0,.327.259Zm.449-.668a.259.259,0,0,1-.09.2.313.313,0,0,1-.214.08.356.356,0,0,1-.225-.074.256.256,0,0,1-.1-.209q0-.262.3-.263Q350.036,64.033,350.035,64.3Zm.46.668a.266.266,0,0,1-.089.2.3.3,0,0,1-.212.083.349.349,0,0,1-.225-.076.256.256,0,0,1-.1-.209q0-.26.3-.26Q350.5,64.71,350.5,64.97Z" transform="translate(-1203.455 4147.274)" fill="#fff"/>
      <path id="Path_386" data-name="Path 386" d="M387.546,66.836a1.309,1.309,0,0,1-.326.89,1.1,1.1,0,0,1-.857.385h-.625l-.079-.486h.531a1.044,1.044,0,0,0,.582-.163.592.592,0,0,0,.281-.518V65.434h.486Zm-.019-2.686a.321.321,0,0,1-.095.236.316.316,0,0,1-.234.1q-.362,0-.362-.33,0-.291.346-.291t.346.289Z" transform="translate(-1237.572 4147.427)" fill="#fff"/>
      <path id="Path_387" data-name="Path 387" d="M404.633,67.037h-.462V64h.462Z" transform="translate(-1253.39 4147.308)" fill="#fff"/>
      <path id="Path_388" data-name="Path 388" d="M414.908,70.871a.561.561,0,0,1-.212.458.745.745,0,0,1-.486.16h-1.465l-.065-.47h1.5q.262,0,.263-.185a.249.249,0,0,0-.071-.172l-1.065-1.131.318-.321,1.065,1.124A.764.764,0,0,1,414.908,70.871Z" transform="translate(-1260.662 4142.855)" fill="#fff"/>
      <path id="Path_389" data-name="Path 389" d="M431.825,76.163a.564.564,0,0,1-.506-.223,1.6,1.6,0,0,1-.291.985,1.059,1.059,0,0,1-.9.436h-.612l-.076-.47h.652a.764.764,0,0,0,.522-.192.639.639,0,0,0,.228-.5V74.68h.473v.682q0,.321.515.332Z" transform="translate(-1274.985 4138.181)" fill="#fff"/>
      <path id="Path_390" data-name="Path 390" d="M446.623,75.394a.823.823,0,0,1-.179.531.609.609,0,0,1-.493.239H444.94v-.47h.864a.365.365,0,0,0,.272-.08.416.416,0,0,0,.074-.284v-.65h.473Zm-.964,1.6q0,.252-.3.252-.329,0-.329-.252a.278.278,0,0,1,.086-.208.291.291,0,0,1,.211-.083q.336-.007.336.285Zm.436.668q0,.257-.3.257-.33,0-.33-.257a.257.257,0,0,1,.291-.291.377.377,0,0,1,.234.074.259.259,0,0,1,.1.209Zm.473-.668q0,.252-.3.252-.329,0-.329-.252a.278.278,0,0,1,.086-.208.291.291,0,0,1,.211-.083q.333-.007.333.285Z" transform="translate(-1288.23 4138.181)" fill="#fff"/>
    </g>
  </g>
</svg>
